<?xml version="1.0" encoding="utf-8"?>
<!-- Uploaded to: SVG Repo, www.svgrepo.com, Generator: SVG Repo Mixer Tools -->
<svg fill="#000000" height="800px" width="800px" version="1.1" id="Layer_1" xmlns="http://www.w3.org/2000/svg" xmlns:xlink="http://www.w3.org/1999/xlink" 
	 viewBox="0 0 64 64" enable-background="new 0 0 64 64" xml:space="preserve">
<g id="Bread_2_">
	<path d="M56.4202728,2.8885663c-8.7074966-7.3007002-26.7343979-0.1942999-40.1825981,15.8408995
		C9.794776,26.4120655,5.3206754,34.988266,3.6390758,42.8768654C1.9100757,50.9891663,3.3304756,57.4452667,7.6385756,61.058567
		c2.3212996,1.9463005,5.3095999,2.9237976,8.7748995,2.9237976c2.9652996,0,6.2812004-0.7157974,9.8257008-2.152298
		c7.4750996-3.0303001,15.1401005-8.9307022,21.5819988-16.6124001C61.270874,29.1815662,65.128273,10.1932659,56.4202728,2.8885663
		z M46.2889748,43.9325676c-6.2359009,7.4365005-13.6235924,13.1338005-20.8013,16.0438995
		c-6.9672909,2.8251991-12.8495989,2.6651001-16.5639992-0.4510994c-3.7138-3.1142998-4.8959999-8.8780022-3.3285999-16.2315025
		c1.6148-7.5751991,5.9384995-15.8427982,12.174799-23.2792988C27.2542744,8.7050667,38.9666748,1.9384663,47.5779762,1.9384663
		c2.9565964,0,5.5478973,0.7978001,7.5571976,2.4834001C62.9983826,11.0165663,59.0301743,28.7411671,46.2889748,43.9325676z"/>
	<path d="M31.025383,47.3885651c-0.0968075-0.4116974-0.1704082-0.8956985-0.3457088-1.3906975
		c-0.1791-0.4923019-0.3192902-1.0591011-0.6030998-1.596302c-0.2509995-0.5541-0.5250988-1.1400986-0.9000988-1.6940994
		c-0.3359013-0.5789986-0.7629013-1.1265984-1.1954002-1.6837997c-0.4750996-0.5205994-0.9512005-1.0606995-1.5018005-1.5233994
		c-1.0697994-0.9578018-2.293499-1.740799-3.5187988-2.2807007c-0.5922012-0.3128014-1.2250004-0.4799004-1.7953014-0.6859016
		c-0.5926991-0.1500969-1.1422997-0.3139-1.6715984-0.3722992c-0.5211926-0.085598-0.9993-0.1436005-1.4350014-0.1474991
		c-0.4298992-0.0209007-0.800499-0.0294991-1.0991001,0.0015984c-0.6015987,0.0458031-0.9474983,0.0903015-0.9474983,0.0903015
		s0.3267994,0.1217003,0.9024982,0.3027c0.2934017,0.0764999,0.6259098,0.2252998,1.0074005,0.3544998
		c0.3810997,0.1236992,0.8001003,0.3167992,1.2590008,0.4980011c0.4627991,0.1688995,0.9275074,0.4468994,1.4406986,0.657299
		c0.4873009,0.2780991,1.0125999,0.5331001,1.5221004,0.8564987c0.5289001,0.2895012,1.0177097,0.6763,1.5403996,1.0223999
		c0.4883099,0.3947029,1.0125999,0.7580032,1.4710999,1.2012024c0.4966011,0.4003983,0.9172096,0.8799973,1.3740005,1.3121986
		c0.3952084,0.4869003,0.8588009,0.9098015,1.2038994,1.405899c0.3768005,0.4715996,0.7218018,0.9449997,1.0373096,1.4084015
		c0.3350906,0.4514999,0.5768909,0.925499,0.8589993,1.3373985c0.2627926,0.4215012,0.4623928,0.8322029,0.6755924,1.184803
		c0.2097988,0.3542976,0.3631001,0.6780968,0.5,0.9432983c0.2744999,0.5304985,0.4518986,0.8364983,0.4518986,0.8364983
		s-0.0127983-0.3438988-0.0707989-0.9508972C31.1517754,48.1742668,31.1315746,47.7978668,31.025383,47.3885651z"/>
	<path d="M40.1113853,34.6179657c-0.1559105-0.5116997-0.2797089-1.0969009-0.5382118-1.6623001
		c-0.2342987-0.5778999-0.5057907-1.1822987-0.8663979-1.7663994c-0.3240013-0.6077003-0.7657013-1.1683006-1.2012024-1.7479
		c-0.479599-0.5426006-0.9693985-1.0979004-1.5335999-1.5760994c-1.1033974-0.9812012-2.3696976-1.7784004-3.6415901-2.3029003
		c-0.6206093-0.2945004-1.2713089-0.4589996-1.8643074-0.644001c-0.6179008-0.1212997-1.1846008-0.2681999-1.7306919-0.2999992
		c-0.5392094-0.0529995-1.0316086-0.0778008-1.4811096-0.0522995c-0.4418907,0.0060997-0.8220997,0.0326004-1.1217995,0.0905991
		c-0.6077003,0.0979996-0.9589005,0.1886005-0.9589005,0.1886005s0.3216,0.1676998,0.8910999,0.4009991
		c0.2923012,0.1033001,0.6153011,0.2872009,0.9847088,0.4435005c0.3674927,0.153101,0.7718925,0.3794003,1.2130013,0.5930996
		c0.4457912,0.1956005,0.8934898,0.4905014,1.3815899,0.7296009c0.4644089,0.2992001,0.9720001,0.5569,1.4531002,0.8985004
		c0.5002003,0.3064995,0.9750004,0.6788998,1.4745007,1.0249996c0.4658089,0.3927994,0.9726982,0.7444992,1.4141998,1.1763992
		c0.4830017,0.384901,0.889801,0.8494015,1.3420982,1.2594013c0.3922005,0.4645996,0.8411026,0.8744984,1.198101,1.341898
		c0.3913002,0.4414024,0.7387009,0.8964996,1.0709991,1.3362007c0.3604088,0.4230995,0.6186028,0.8787994,0.9239998,1.2712021
		c0.2930031,0.3992996,0.5240021,0.7919998,0.7655029,1.1299973c0.2357979,0.3406029,0.4223976,0.6514015,0.5846977,0.907402
		c0.3244019,0.5125999,0.5472107,0.8078995,0.5472107,0.8078995s0.0327911-0.354702,0.0244904-0.9794006
		c-0.0087013-0.3110008,0.004509-0.7002983-0.0758018-1.1235008C40.2988739,35.6371651,40.256382,35.1351662,40.1113853,34.6179657z
		"/>
	<path d="M48.7891731,27.1516666c-0.0966988-0.4117012-0.1703987-0.8957005-0.3456993-1.3907013
		c-0.1788979-0.4922981-0.3191986-1.0590992-0.6030884-1.5963993c-0.2509117-0.5539989-0.52491-1.1401005-0.9001122-1.6940002
		c-0.3358002-0.5789986-0.7628899-1.1266003-1.1954002-1.6838989c-0.4749985-0.5205002-0.9510002-1.0607014-1.5016975-1.5233002
		c-1.0699005-0.957901-2.293602-1.7408009-3.5189018-2.2807999c-0.5920982-0.3127003-1.2249985-0.4798012-1.7952995-0.6858997
		c-0.592701-0.1500015-1.1422997-0.3138008-1.6715889-0.3723011c-0.5212097-0.0855999-0.9992104-0.1434994-1.4350014-0.1473999
		c-0.4298096-0.0208998-0.8005104-0.0296001-1.098999,0.0014c-0.6017113,0.0459003-0.9475098,0.0904999-0.9475098,0.0904999
		s0.3268013,0.1217003,0.902401,0.3027c0.293499,0.0764008,0.6261063,0.2252007,1.0074997,0.3544998
		c0.3810997,0.1237011,0.7999992,0.3168011,1.2590981,0.4979c0.4626999,0.1690006,0.9274025,0.4469013,1.4406013,0.6574001
		c0.4871979,0.2779999,1.0125999,0.5331001,1.5220985,0.8563995c0.5289993,0.2896004,1.0177002,0.6764011,1.5403023,1.022501
		c0.4883995,0.3945999,1.0126991,0.7579002,1.4710999,1.2012005c0.4965973,0.4002991,0.9172974,0.8799992,1.3740997,1.3121986
		c0.3951988,0.4868011,0.858799,0.9098015,1.2038002,1.405901c0.3768997,0.4715004,0.7217979,0.9449005,1.0373001,1.4083004
		c0.3350983,0.4515991,0.5769005,0.9256001,0.8589973,1.3373985c0.2628021,0.4215012,0.4625015,0.832201,0.6757011,1.1848011
		c0.2098007,0.3543987,0.363102,0.6781006,0.4999008,0.9433994c0.274498,0.5305004,0.4519005,0.836401,0.4519005,0.836401
		s-0.0127029-0.3439007-0.0708008-0.9507999C48.9155731,27.9371662,48.8953819,27.5609665,48.7891731,27.1516666z"/>
</g>
</svg>